<svg id="Layer_1" data-name="Layer 1" xmlns="http://www.w3.org/2000/svg" viewBox="0 0 528.88 92.37"><defs><style>.cls-1{fill:#4c4747;}.cls-2{fill:#e78200;}.cls-3{fill:#fd4f19;}.cls-4{fill:#fe4e16;}</style></defs><path class="cls-1" d="M156.82,251.57v.94l-31.19,40.61h27.5a3.4,3.4,0,0,0,2-.44A2.91,2.91,0,0,0,156,291h1.07v8.68H156a2.91,2.91,0,0,0-.88-1.71,3.33,3.33,0,0,0-2-.44H116.64v-1L148,255.94h-27a3.32,3.32,0,0,0-2,.45,2.91,2.91,0,0,0-.88,1.71H117v-8.68h1.06a2.91,2.91,0,0,0,.88,1.72,3.42,3.42,0,0,0,2,.43Z" transform="translate(-42.49 -216.95)"/><path class="cls-1" d="M196.06,284.61H171.77l-4,8.71a5.13,5.13,0,0,0-.57,1.75c0,.67.66,1.12,2,1.34v1.08H159.05v-1.08a3.5,3.5,0,0,0,2.08-1A14,14,0,0,0,163,292l16.63-36.3a5.51,5.51,0,0,0,.6-1.78c0-.58-.54-1-1.63-1.31v-1.08h11v1.08c-1.08.36-1.63.83-1.63,1.41a5.77,5.77,0,0,0,.6,1.68l15.94,35a30.06,30.06,0,0,0,2.32,4.54,4.82,4.82,0,0,0,2.47,1.14v1.08H198.57v-1.08c1.29-.18,1.93-.67,1.93-1.48a6.3,6.3,0,0,0-.73-2.08Zm-1.92-4.38-10.23-22.69L173.7,280.23Z" transform="translate(-42.49 -216.95)"/><path class="cls-1" d="M229.14,277.15v16.37a3.42,3.42,0,0,0,.43,2,3,3,0,0,0,1.7.92v1.08h-9.48v-1.08a3,3,0,0,0,1.69-.91,3.36,3.36,0,0,0,.44-2V277.15l-14.67-19.43a38.24,38.24,0,0,0-3.31-4,4.33,4.33,0,0,0-2.28-1.07v-1.08h11.53v1.08c-1.05.27-1.57.7-1.57,1.31a6.55,6.55,0,0,0,1.57,3.26l11.52,15.87,11.49-16.41a6.89,6.89,0,0,0,1.47-2.82c0-.56-.49-1-1.47-1.21v-1.08h10.73v1.08a5.08,5.08,0,0,0-2.79,1.48,36.3,36.3,0,0,0-3.1,3.59Z" transform="translate(-42.49 -216.95)"/><path class="cls-1" d="M276.31,250.76q12,0,19.36,6.36a22.06,22.06,0,0,1,6.18,8.65,24,24,0,0,1,1.7,9.05,22.21,22.21,0,0,1-3.69,12.27,22.82,22.82,0,0,1-11.28,9.12,33.61,33.61,0,0,1-12.21,2.09q-11.94,0-19.26-6.36a23.11,23.11,0,0,1,7.09-39.09A35,35,0,0,1,276.31,250.76Zm0,4.61q-10.21,0-16.17,5.79a19.12,19.12,0,0,0,0,26.74q5.92,5.79,16.23,5.79t16.3-5.79a17.61,17.61,0,0,0,5.42-13.12q0-8.44-5.42-13.62a18.84,18.84,0,0,0-7-4.34A29.46,29.46,0,0,0,276.31,255.37Z" transform="translate(-42.49 -216.95)"/><path class="cls-1" d="M360.26,255.54l-4.92,8.31-.9-.54a6,6,0,0,0,.3-1.58q0-1.38-4.26-3.46a28.41,28.41,0,0,0-12.77-2.9q-9.31,0-15.1,5.21a17.64,17.64,0,0,0-5.89,13.75,18,18,0,0,0,6.12,13.95,20.89,20.89,0,0,0,14.61,5.41,23.84,23.84,0,0,0,15-5c2-1.5,2.93-2.57,2.93-3.19a4.09,4.09,0,0,0-.56-1.55l.79-.64,5.93,7.27-.84.67a2.61,2.61,0,0,0-1.53-.84,2.71,2.71,0,0,0-1.26.71,52.44,52.44,0,0,1-5.07,3.49,24.65,24.65,0,0,1-4.41,2,33.29,33.29,0,0,1-10.91,1.72q-11.48,0-18.66-6.46a22.12,22.12,0,0,1-7.55-17.26A22.6,22.6,0,0,1,316,260.25q7.38-9.48,22.12-9.49A37.47,37.47,0,0,1,357,256a2.23,2.23,0,0,0,.83.33c.29,0,.81-.42,1.57-1.27Z" transform="translate(-42.49 -216.95)"/><path class="cls-1" d="M394.13,250.76q12,0,19.36,6.36a22.06,22.06,0,0,1,6.18,8.65,24,24,0,0,1,1.7,9.05,22.21,22.21,0,0,1-3.69,12.27,22.82,22.82,0,0,1-11.28,9.12,33.61,33.61,0,0,1-12.21,2.09q-11.94,0-19.26-6.36A23.11,23.11,0,0,1,382,252.85,35,35,0,0,1,394.13,250.76Zm0,4.61q-10.22,0-16.17,5.79a19.1,19.1,0,0,0,0,26.74q5.93,5.79,16.23,5.79t16.3-5.79a17.61,17.61,0,0,0,5.42-13.12q0-8.44-5.42-13.62a18.84,18.84,0,0,0-7-4.34A29.46,29.46,0,0,0,394.13,255.37Z" transform="translate(-42.49 -216.95)"/><path class="cls-1" d="M432.35,294V255.07a2.31,2.31,0,0,0-.47-1.55,3.33,3.33,0,0,0-1.66-.87v-1.08h23.95q8.15,0,12.47,2.29a18.77,18.77,0,0,1,8.32,8.81,27.18,27.18,0,0,1,2.49,11.84A26.12,26.12,0,0,1,474.09,288a17.91,17.91,0,0,1-7.66,7.25q-4.65,2.19-12.26,2.2H430.22v-1.08a3.33,3.33,0,0,0,1.66-.87A2.31,2.31,0,0,0,432.35,294Zm5.22-.87H454q7.21,0,10.71-2.26a15.44,15.44,0,0,0,6.05-8.24,24.76,24.76,0,0,0,1.27-8.11q0-8-4-13.25a12.24,12.24,0,0,0-5.42-4.11,25,25,0,0,0-8.58-1.21h-16.4Z" transform="translate(-42.49 -216.95)"/><path class="cls-1" d="M493.65,276.06v17.06h29.11a3.4,3.4,0,0,0,2-.44,3,3,0,0,0,.88-1.72h1.06v8.68h-1.06a3,3,0,0,0-.92-1.71,3.27,3.27,0,0,0-2-.44H486.3v-1.08a2.89,2.89,0,0,0,1.71-.91,3.46,3.46,0,0,0,.42-2v-38a3.45,3.45,0,0,0-.43-2,3,3,0,0,0-1.7-.91v-1.08h36a3.32,3.32,0,0,0,2-.43,3.22,3.22,0,0,0,.9-1.72h1.06v8.68h-1.06a2.91,2.91,0,0,0-.89-1.71,3.26,3.26,0,0,0-2-.45H493.65v15.75h18.8a3.35,3.35,0,0,0,2-.44,2.91,2.91,0,0,0,.89-1.72h1.06v8.68h-1.06a2.91,2.91,0,0,0-.89-1.71,3.35,3.35,0,0,0-2-.44Z" transform="translate(-42.49 -216.95)"/><path class="cls-2" d="M42.89,251.34c-1.51,12.72,1.35,22.93,6.53,30.82,1.36,2.06,2.83,4.2,3.23,3.78,2.49-2.58,1.19-1.17,7.05-6.93A38.63,38.63,0,0,1,57,273.49a47.54,47.54,0,0,1-2.67-9,51.93,51.93,0,0,1-.47-14.41c1-6.88,6-16.43,9.67-22.61A38.89,38.89,0,0,1,68.15,221c-2.56-1.65-3.73-2.78-5.43-4.05,0,0-4.09,4.09-6.78,7.21C50.52,230.42,44.3,239.54,42.89,251.34Z" transform="translate(-42.49 -216.95)"/><path class="cls-3" d="M108,274.93c1.52-12.72-1.35-22.93-6.53-30.82-1.35-2.06-2.83-4.2-3.23-3.78-2.48,2.58-1.18,1.17-7,6.93a38.63,38.63,0,0,1,2.74,5.52,46.12,46.12,0,0,1,2.67,9A51.55,51.55,0,0,1,97,276.18c-1,6.88-6,16.42-9.67,22.61a38.89,38.89,0,0,1-4.66,6.48c2.57,1.64,3.73,2.78,5.44,4.05,0,0,4.08-4.09,6.77-7.21C100.34,295.85,106.56,286.73,108,274.93Z" transform="translate(-42.49 -216.95)"/><ellipse class="cls-4" cx="519.4" cy="58.05" rx="9.48" ry="9.54"/></svg>